<svg xmlns="http://www.w3.org/2000/svg" width="20" height="20" viewBox="0 0 20 20">
  <path fill-rule="evenodd" d="M5.89896904,1.69841834 C4.86714428,1.69841834 3.8815543,2.06392943 3.09218017,2.74629224 C1.11423413,4.45389669 1.50102746,7.14826792 2.69636542,8.93055884 C4.57845888,11.7346966 7.79233927,15.1589584 9.71277376,17.2037836 L10.0003315,17.5115824 L10.2923999,17.1992571 C12.210579,15.1544319 15.4233317,11.733565 17.3031699,8.93055884 C18.4985078,7.14826792 18.8853011,4.45276507 16.9073551,2.74629224 C15.1053267,1.19032397 12.3763476,1.39401436 10.8235359,3.20346401 C10.8190252,3.24986015 10.7682797,3.36075825 10.6825763,3.47957765 L10.0048422,4.40750054 L9.32146973,3.4841041 C9.23238322,3.36302148 9.18051006,3.24986015 9.14667974,3.17517367 C8.42383857,2.32759532 7.37735401,1.79686869 6.22825081,1.71086608 C6.11773844,1.70181318 6.00835374,1.69841834 5.89896904,1.69841834 L5.89896904,1.69841834 Z M10.0003315,20 L8.48135012,18.367082 C6.52595763,16.2849136 3.25231035,12.7984131 1.29353483,9.87885078 C-0.661857658,6.96381495 -0.376555294,3.50220991 1.98818406,1.45964793 C3.2049479,0.409510804 4.75775958,-0.105373241 6.35455068,0.017972607 C7.73257237,0.120949416 9.0045924,0.684492832 10.0003315,1.61807379 C12.210579,-0.44938368 15.6725484,-0.561413395 18.0113512,1.45964793 C20.3760906,3.5010783 20.6625206,6.96268334 18.7060004,9.87885078 C16.7494803,12.7961498 13.4769607,16.2803871 11.5226959,18.3636872 L10.0003315,20 Z"/>
</svg>