<svg width="40" height="40" viewBox="0 0 40 40" fill="none" xmlns="http://www.w3.org/2000/svg">
<path fill-rule="evenodd" clip-rule="evenodd" d="M12.475 17.763C12.475 14.847 14.848 12.475 17.763 12.475C20.679 12.475 23.052 14.847 23.052 17.763C23.052 20.679 20.679 23.052 17.763 23.052C14.848 23.052 12.475 20.679 12.475 17.763ZM29.957 27.871L23.469 21.383C24.135 20.336 24.526 19.096 24.526 17.763C24.526 14.028 21.498 11 17.763 11C14.028 11 11 14.028 11 17.763C11 21.498 14.028 24.526 17.763 24.526C19.097 24.526 20.336 24.135 21.383 23.469L27.871 29.957L29.957 27.871Z" fill="black"/>
</svg>
