<svg width="20" height="20" viewBox="0 0 20 20" fill="none" xmlns="http://www.w3.org/2000/svg">
<path fill-rule="evenodd" clip-rule="evenodd" d="M13.9434 9.24331C11.7945 7.9672 8.25004 7.84998 6.19837 8.47276C5.86893 8.57276 5.5206 8.38665 5.42115 8.0572C5.32115 7.72776 5.50671 7.37942 5.83671 7.27942C8.19171 6.56442 12.1062 6.70276 14.58 8.17109C14.8762 8.3472 14.9734 8.72942 14.7978 9.02554C14.6223 9.32165 14.2395 9.41942 13.9434 9.24331ZM13.8734 11.1339C13.7223 11.3783 13.4028 11.455 13.1584 11.305C11.3667 10.2039 8.63504 9.88442 6.51504 10.5278C6.2406 10.6111 5.95004 10.4561 5.86671 10.1816C5.78393 9.90665 5.93893 9.6172 6.21337 9.53331C8.63448 8.79887 11.6445 9.15442 13.7023 10.4194C13.9467 10.5694 14.0234 10.89 13.8734 11.1339ZM13.0573 12.9489C12.9378 13.1455 12.6817 13.2072 12.4862 13.0872C10.9206 12.1305 8.95004 11.9144 6.62948 12.4444C6.40615 12.4955 6.18337 12.3555 6.13226 12.1322C6.08115 11.9083 6.2206 11.6855 6.44448 11.6344C8.98393 11.0539 11.1623 11.3039 12.9195 12.3778C13.1156 12.4972 13.1773 12.7533 13.0573 12.9489V12.9489ZM10 3.33331C6.31837 3.33331 3.33337 6.31831 3.33337 9.99998C3.33337 13.6822 6.31837 16.6666 10 16.6666C13.6823 16.6666 16.6667 13.6822 16.6667 9.99998C16.6667 6.31831 13.6823 3.33331 10 3.33331Z" fill="black"/>
</svg>
