<svg width="20" height="20" viewBox="0 0 20 20" fill="none" xmlns="http://www.w3.org/2000/svg">
<mask id="mask0_145_688" style="mask-type:alpha" maskUnits="userSpaceOnUse" x="3" y="3" width="14" height="14">
<path d="M3.33337 3.33331H16.6667V16.666H3.33337V3.33331Z" fill="white"/>
</mask>
<g mask="url(#mask0_145_688)">
<path fill-rule="evenodd" clip-rule="evenodd" d="M13.5587 5.64131C13.3464 5.64131 13.1429 5.72563 12.9928 5.87573C12.8427 6.02582 12.7584 6.22938 12.7584 6.44165C12.7584 6.65391 12.8427 6.85748 12.9928 7.00757C13.1429 7.15766 13.3464 7.24198 13.5587 7.24198C13.7709 7.24198 13.9744 7.15769 14.1244 7.00766C14.2744 6.85764 14.3587 6.65415 14.3587 6.44198C14.3587 6.22981 14.2744 6.02632 14.1244 5.87629C13.9744 5.72627 13.7709 5.64198 13.5587 5.64198V5.64131ZM10 12.2213C9.70505 12.2264 9.41199 12.1727 9.13797 12.0634C8.86395 11.954 8.61445 11.7912 8.40403 11.5844C8.19361 11.3776 8.02648 11.1309 7.91239 10.8589C7.79831 10.5868 7.73955 10.2947 7.73955 9.99965C7.73955 9.70461 7.79831 9.41253 7.91239 9.14044C8.02648 8.86836 8.19361 8.62171 8.40403 8.41491C8.61445 8.2081 8.86395 8.04527 9.13797 7.93591C9.41199 7.82656 9.70505 7.77287 10 7.77798C10.5826 7.78807 11.1379 8.02658 11.5463 8.44212C11.9547 8.85767 12.1836 9.417 12.1836 9.99965C12.1836 10.5823 11.9547 11.1416 11.5463 11.5572C11.1379 11.9727 10.5826 12.2112 10 12.2213V12.2213ZM10 6.57598C9.09212 6.57598 8.22138 6.93665 7.57938 7.57865C6.93738 8.22065 6.57671 9.09139 6.57671 9.99931C6.57671 10.9072 6.93738 11.778 7.57938 12.42C8.22138 13.062 9.09212 13.4226 10 13.4226C10.908 13.4226 11.7787 13.062 12.4207 12.42C13.0627 11.778 13.4234 10.9072 13.4234 9.99931C13.4234 9.09139 13.0627 8.22065 12.4207 7.57865C11.7787 6.93665 10.908 6.57598 10 6.57598V6.57598ZM10 3.33331C8.18937 3.33331 7.96271 3.34065 7.25204 3.37331C4.83071 3.48398 3.48537 4.82731 3.37337 7.25065C3.34004 7.96265 3.33337 8.18931 3.33337 9.99998C3.33337 11.81 3.34137 12.0373 3.37337 12.7486C3.48471 15.1693 4.82804 16.5153 7.25137 16.6266C7.96271 16.6586 8.18937 16.6666 10 16.6666C11.8107 16.6666 12.038 16.6586 12.7487 16.6266C15.168 16.5153 16.5167 15.172 16.6267 12.7486C16.6587 12.0373 16.6667 11.81 16.6667 9.99998C16.6667 8.18931 16.6587 7.96265 16.6267 7.25131C16.518 4.83331 15.1734 3.48465 12.75 3.37398C12.038 3.34065 11.8107 3.33398 10 3.33398V3.33331ZM10 4.53465C11.78 4.53465 11.9907 4.54131 12.6947 4.57331C14.5014 4.65598 15.3454 5.51331 15.4274 7.30665C15.46 8.00931 15.4654 8.22065 15.4654 10.0006C15.4654 11.7806 15.4587 11.9913 15.4274 12.6946C15.3447 14.486 14.5027 15.3446 12.694 15.4266C11.9907 15.46 11.7807 15.4666 10 15.4666C8.22004 15.4666 8.00871 15.46 7.30604 15.4266C5.49537 15.344 4.65604 14.4826 4.57271 12.694C4.54137 11.9906 4.53471 11.7806 4.53471 10.0006C4.53471 8.22065 4.54137 8.00931 4.57337 7.30598C4.65604 5.51331 5.49804 4.65531 7.30604 4.57265C8.00937 4.54131 8.21937 4.53465 9.99937 4.53465" fill="black"/>
</g>
</svg>
