<svg xmlns="http://www.w3.org/2000/svg" width="20" height="20"><path fill-rule="evenodd" d="M19.99 5.933c-.089 1.913-1.448 4.533-4.079 7.858C13.192 17.264 10.891 19 9.01 19c-1.166 0-2.153-1.057-2.958-3.173l-1.615-5.816c-.598-2.115-1.24-3.173-1.926-3.173-.15 0-.674.31-1.57.926L0 6.572a251.05 251.05 0 002.919-2.557C4.235 2.897 5.223 2.309 5.882 2.25c1.557-.147 2.515.898 2.874 3.136.389 2.415.658 3.917.809 4.505.448 2.003.942 3.003 1.481 3.003.42 0 1.048-.65 1.886-1.949.838-1.3 1.286-2.288 1.347-2.967.12-1.122-.33-1.684-1.347-1.684-.479 0-.972.108-1.48.322.983-3.164 2.86-4.7 5.633-4.612 2.055.059 3.024 1.369 2.905 3.929"/></svg>