<svg xmlns="http://www.w3.org/2000/svg" xmlns:xlink="http://www.w3.org/1999/xlink" width="20" height="20"><defs><path id="a" d="M0 0h20v19.999H0z"/></defs><g fill="none" fill-rule="evenodd"><mask id="b" fill="#fff"><use xlink:href="#a"/></mask><path fill="#000" d="M15.338 3.462a1.2 1.2 0 100 2.401 1.2 1.2 0 000-2.4M10 13.332a3.333 3.333 0 110-6.665 3.333 3.333 0 010 6.665m0-8.468a5.135 5.135 0 100 10.27 5.135 5.135 0 000-10.27M10 0C7.284 0 6.944.011 5.878.06 2.246.226.228 2.241.06 5.876.01 6.944 0 7.284 0 10c0 2.715.012 3.056.06 4.123.167 3.631 2.182 5.65 5.817 5.817 1.067.048 1.407.06 4.123.06s3.057-.012 4.123-.06c3.629-.167 5.652-2.182 5.817-5.817.048-1.067.06-1.408.06-4.123 0-2.716-.012-3.056-.06-4.123C19.777 2.25 17.76.227 14.125.061 13.057.011 12.716.001 10 .001m0 1.801c2.67 0 2.986.01 4.042.058 2.71.124 3.976 1.41 4.099 4.1.049 1.054.057 1.371.057 4.041 0 2.67-.01 2.986-.057 4.041-.124 2.687-1.387 3.975-4.1 4.098-1.055.05-1.37.06-4.041.06-2.67 0-2.987-.01-4.041-.06-2.716-.124-3.975-1.416-4.1-4.099-.047-1.055-.057-1.37-.057-4.04s.01-2.987.058-4.042c.124-2.689 1.387-3.976 4.099-4.1 1.055-.047 1.37-.057 4.04-.057" mask="url(#b)"/></g></svg>