<svg width="20" height="20" viewBox="0 0 20 20" fill="none" xmlns="http://www.w3.org/2000/svg">
<mask id="mask0_56_514" style="mask-type:alpha" maskUnits="userSpaceOnUse" x="3" y="4" width="14" height="12">
<path d="M3.33337 4.66669H16.6667V15.502H3.33337V4.66669Z" fill="white"/>
</mask>
<g mask="url(#mask0_56_514)">
<path fill-rule="evenodd" clip-rule="evenodd" d="M16.6667 5.94936C16.1677 6.17087 15.6382 6.31605 15.096 6.38002C15.6674 6.0385 16.0947 5.5005 16.298 4.86669C15.7612 5.18537 15.1739 5.40994 14.5614 5.53069C14.3055 5.25757 13.9962 5.03994 13.6528 4.89131C13.3093 4.74268 12.939 4.66623 12.5647 4.66669C10.798 4.66669 9.50071 6.31469 9.89937 8.02469C8.81189 7.97038 7.74799 7.68792 6.77678 7.19565C5.80557 6.70339 4.94877 6.01232 4.26204 5.16736C3.91215 5.76951 3.80487 6.48238 3.96204 7.16084C4.11921 7.83931 4.52901 8.43238 5.10804 8.81936C4.67377 8.80585 4.24905 8.68858 3.86937 8.47736C3.83937 9.74469 4.74804 10.93 6.06337 11.194C5.66052 11.3035 5.238 11.3194 4.82804 11.2407C5.00272 11.7842 5.34296 12.2595 5.80116 12.6001C6.25936 12.9407 6.81257 13.1294 7.38337 13.14C6.23682 14.0394 4.78021 14.447 3.33337 14.2734C4.58417 15.0772 6.0399 15.5039 7.52671 15.5027C12.6054 15.5027 15.4754 11.2127 15.3014 7.36602C15.8369 6.97852 16.2992 6.49882 16.6667 5.94936Z" fill="black"/>
</g>
</svg>
