<svg width="40" height="40" viewBox="0 0 40 40" fill="none" xmlns="http://www.w3.org/2000/svg">
<path fill-rule="evenodd" clip-rule="evenodd" d="M26.9432 21.3789C26.9432 25.2632 23.8297 28.4211 20 28.4211C16.1703 28.4211 13.0568 25.2632 13.0568 21.3789V18.6211C13.0568 14.7368 16.1703 11.5789 20 11.5789C23.8297 11.5789 26.9432 14.7368 26.9432 18.6211V21.3789ZM20 10C15.3193 10 11.5 13.8632 11.5 18.6211V21.3789C11.5 26.1263 15.3193 30 20 30C24.6911 30 28.5 26.1263 28.5 21.3789V18.6211C28.5 13.8632 24.6911 10 20 10Z" fill="black"/>
<path fill-rule="evenodd" clip-rule="evenodd" d="M18.5 18C18.5 18.5518 18.0526 19 17.4995 19C16.9474 19 16.5 18.5518 16.5 18C16.5 17.4472 16.9474 17 17.4995 17C18.0526 17 18.5 17.4472 18.5 18ZM23.5 18C23.5 18.5518 23.0526 19 22.4995 19C21.9474 19 21.5 18.5518 21.5 18C21.5 17.4472 21.9474 17 22.4995 17C23.0526 17 23.5 17.4472 23.5 18ZM20 24C18.6618 24 17.4193 23.5207 16.5 22.6491L17.2916 22C18.004 22.6754 18.9654 23.0468 20 23.0468C21.0346 23.0468 21.996 22.6754 22.7084 22L23.5 22.6491C22.5807 23.5207 21.3382 24 20 24Z" fill="black"/>
</svg>
