<svg width="20" height="20" viewBox="0 0 20 20" fill="none" xmlns="http://www.w3.org/2000/svg">
<path fill-rule="evenodd" clip-rule="evenodd" d="M16.66 7.2884C16.6007 8.56374 15.6947 10.3104 13.9407 12.5271C12.128 14.8424 10.594 15.9997 9.34004 15.9997C8.56271 15.9997 7.90471 15.2951 7.36804 13.8844L6.29137 10.0071C5.89271 8.59707 5.46471 7.89174 5.00737 7.89174C4.90737 7.89174 4.55804 8.0984 3.96071 8.50907L3.33337 7.7144C3.98642 7.1512 4.63511 6.58296 5.27937 6.00974C6.15671 5.2644 6.81537 4.8724 7.25471 4.83307C8.29271 4.73507 8.93137 5.43174 9.17071 6.92374C9.43004 8.53374 9.60937 9.53507 9.71004 9.92707C10.0087 11.2624 10.338 11.9291 10.6974 11.9291C10.9774 11.9291 11.396 11.4957 11.9547 10.6297C12.5134 9.76307 12.812 9.1044 12.8527 8.65174C12.9327 7.90374 12.6327 7.52907 11.9547 7.52907C11.6354 7.52907 11.3067 7.60107 10.968 7.74374C11.6234 5.6344 12.8747 4.6104 14.7234 4.66907C16.0934 4.7084 16.7394 5.58174 16.66 7.2884Z" fill="black"/>
</svg>
