<svg width="212" height="22" version="1.1" id="Layer_1" xmlns="http://www.w3.org/2000/svg" x="0px" y="0px" viewBox="0 0 212.5 22" style="enable-background:new 0 0 212.5 22" xml:space="preserve"><g><path d="M0 .3h3.8L8 16.4 12.7.3H16l4.7 16.1L24.9.3h3.8l-5.9 21.4H19l-4.7-16-4.7 16H5.9L0 .3z"/><path d="M30.3 11c0-6.3 4.8-11 11.1-11s11.1 4.7 11.1 11-4.8 11-11.1 11-11.1-4.6-11.1-11zm18.4 0c0-4.4-3.1-7.5-7.4-7.5S34 6.6 34 11c0 4.3 3.1 7.5 7.4 7.5 4.2 0 7.3-3.2 7.3-7.5z"/><path d="M55.2 11c0-6.3 4.8-11 11.1-11s11.1 4.7 11.1 11-4.8 11-11.1 11-11.1-4.6-11.1-11zm18.4 0c0-4.4-3.1-7.5-7.4-7.5s-7.4 3.1-7.4 7.5c0 4.3 3.1 7.5 7.4 7.5 4.3 0 7.4-3.2 7.4-7.5z"/><path d="M81.3.3h7.2C94.4.3 99.9 3.5 99.9 11c0 7.5-5.6 10.7-11.3 10.7h-7.3V.3zm7.4 18.1c4.1 0 7.4-2.6 7.4-7.4s-3.2-7.4-7.3-7.4h-4v14.8h3.9z"/><path d="M112.6.3h3.8l4.2 16.1L125.3.3h3.4l4.7 16.1L137.6.3h3.8l-5.9 21.4h-3.8l-4.7-16-4.7 16h-3.8L112.6.3z"/><path d="M143 11c0-6.3 4.8-11 11.1-11s11.1 4.7 11.1 11-4.8 11-11.1 11c-6.4 0-11.1-4.6-11.1-11zm18.4 0c0-4.4-3.1-7.5-7.4-7.5-4.2 0-7.4 3.1-7.4 7.5 0 4.3 3.1 7.5 7.4 7.5 4.2 0 7.4-3.2 7.4-7.5z"/><path d="M167.9 11c0-6.3 4.8-11 11.1-11s11.1 4.7 11.1 11-4.8 11-11.1 11c-6.4 0-11.1-4.6-11.1-11zm18.4 0c0-4.4-3.1-7.5-7.4-7.5s-7.4 3.1-7.4 7.5c0 4.3 3.1 7.5 7.4 7.5 4.2 0 7.4-3.2 7.4-7.5z"/><path d="M193.9.3h7.2c5.9 0 11.4 3.2 11.4 10.7 0 7.5-5.6 10.7-11.3 10.7h-7.3V.3zm7.5 18.1c4.1 0 7.4-2.6 7.4-7.4s-3.2-7.4-7.3-7.4h-4v14.8h3.9z"/></g></svg>