<svg width="30" height="30" viewBox="0 0 30 30" fill="none" xmlns="http://www.w3.org/2000/svg">
<mask id="mask0_36_255" style="mask-type:alpha" maskUnits="userSpaceOnUse" x="5" y="7" width="20" height="17">
<path d="M5 7H25V23.253H5V7Z" fill="white"/>
</mask>
<g mask="url(#mask0_36_255)">
<path fill-rule="evenodd" clip-rule="evenodd" d="M25 8.924C24.2515 9.25627 23.4573 9.47404 22.644 9.57C23.501 9.05772 24.142 8.25072 24.447 7.3C23.6418 7.77803 22.7607 8.11488 21.842 8.296C21.4582 7.88632 20.9943 7.55988 20.4791 7.33694C19.9639 7.11399 19.4084 6.99931 18.847 7C16.197 7 14.251 9.472 14.849 12.037C13.2178 11.9555 11.6219 11.5318 10.1651 10.7934C8.70829 10.055 7.4231 9.01846 6.393 7.751C5.86817 8.65424 5.70725 9.72353 5.943 10.7412C6.17876 11.7589 6.79346 12.6485 7.662 13.229C7.0106 13.2087 6.37352 13.0328 5.804 12.716C5.759 14.617 7.122 16.395 9.095 16.791C8.49072 16.9552 7.85694 16.9791 7.242 16.861C7.50402 17.6763 8.01438 18.3893 8.70168 18.9001C9.38897 19.411 10.2188 19.6941 11.075 19.71C9.35517 21.0591 7.17025 21.6705 5 21.41C6.8762 22.6157 9.0598 23.2558 11.29 23.254C18.908 23.254 23.213 16.819 22.952 11.049C23.7553 10.4677 24.4488 9.7482 25 8.924Z" fill="black"/>
</g>
</svg>
