<svg width="30" height="30" viewBox="0 0 30 30" fill="none" xmlns="http://www.w3.org/2000/svg">
<path fill-rule="evenodd" clip-rule="evenodd" d="M24.99 10.9326C24.901 12.8456 23.542 15.4656 20.911 18.7906C18.192 22.2636 15.891 23.9996 14.01 23.9996C12.844 23.9996 11.857 22.9426 11.052 20.8266L9.437 15.0106C8.839 12.8956 8.197 11.8376 7.511 11.8376C7.361 11.8376 6.837 12.1476 5.941 12.7636L5 11.5716C5.97957 10.7268 6.9526 9.87442 7.919 9.01458C9.235 7.89658 10.223 7.30858 10.882 7.24958C12.439 7.10258 13.397 8.14758 13.756 10.3856C14.145 12.8006 14.414 14.3026 14.565 14.8906C15.013 16.8936 15.507 17.8936 16.046 17.8936C16.466 17.8936 17.094 17.2436 17.932 15.9446C18.77 14.6446 19.218 13.6566 19.279 12.9776C19.399 11.8556 18.949 11.2936 17.932 11.2936C17.453 11.2936 16.96 11.4016 16.452 11.6156C17.435 8.45158 19.312 6.91558 22.085 7.00358C24.14 7.06258 25.109 8.37258 24.99 10.9326Z" fill="black"/>
</svg>
