<svg width="30" height="30" viewBox="0 0 30 30" fill="none" xmlns="http://www.w3.org/2000/svg">
<path fill-rule="evenodd" clip-rule="evenodd" d="M20.915 13.865C17.6917 11.9508 12.375 11.775 9.2975 12.7092C8.80333 12.8592 8.28083 12.58 8.13167 12.0858C7.98167 11.5917 8.26 11.0692 8.755 10.9192C12.2875 9.84667 18.1592 10.0542 21.87 12.2567C22.3142 12.5208 22.46 13.0942 22.1967 13.5383C21.9333 13.9825 21.3592 14.1292 20.915 13.865ZM20.81 16.7008C20.5833 17.0675 20.1042 17.1825 19.7375 16.9575C17.05 15.3058 12.9525 14.8267 9.7725 15.7917C9.36083 15.9167 8.925 15.6842 8.8 15.2725C8.67583 14.86 8.90833 14.4258 9.32 14.3C12.9517 13.1983 17.4667 13.7317 20.5533 15.6292C20.92 15.8542 21.035 16.335 20.81 16.7008ZM19.5858 19.4233C19.4067 19.7183 19.0225 19.8108 18.7292 19.6308C16.3808 18.1958 13.425 17.8717 9.94417 18.6667C9.60917 18.7433 9.275 18.5333 9.19833 18.1983C9.12167 17.8625 9.33083 17.5283 9.66667 17.4517C13.4758 16.5808 16.7433 16.9558 19.3792 18.5667C19.6733 18.7458 19.7658 19.13 19.5858 19.4233V19.4233ZM15 5C9.4775 5 5 9.4775 5 15C5 20.5233 9.4775 25 15 25C20.5233 25 25 20.5233 25 15C25 9.4775 20.5233 5 15 5Z" fill="black"/>
</svg>
