<svg width="40" height="40" viewBox="0 0 40 40" fill="none" xmlns="http://www.w3.org/2000/svg">
<path fill-rule="evenodd" clip-rule="evenodd" d="M15.899 11.6984C14.8671 11.6984 13.8816 12.0639 13.0922 12.7463C11.1142 14.4539 11.501 17.1483 12.6964 18.9306C14.5785 21.7347 17.7923 25.159 19.7128 27.2038L20.0003 27.5116L20.2924 27.1993C22.2106 25.1544 25.4233 21.7336 27.3032 18.9306C28.4985 17.1483 28.8853 14.4528 26.9074 12.7463C25.1053 11.1903 22.3763 11.394 20.8235 13.2035C20.819 13.2499 20.7683 13.3608 20.6826 13.4796L20.0048 14.4075L19.3215 13.4841C19.2324 13.363 19.1805 13.2499 19.1467 13.1752C18.4238 12.3276 17.3774 11.7969 16.2283 11.7109C16.1177 11.7018 16.0084 11.6984 15.899 11.6984ZM20.0003 30L18.4813 28.3671C16.526 26.2849 13.2523 22.7984 11.2935 19.8789C9.33814 16.9638 9.62344 13.5022 11.9882 11.4596C13.2049 10.4095 14.7578 9.89463 16.3546 10.018C17.7326 10.1209 19.0046 10.6845 20.0003 11.6181C22.2106 9.55062 25.6725 9.43859 28.0114 11.4596C30.3761 13.5011 30.6625 16.9627 28.706 19.8789C26.7495 22.7962 23.477 26.2804 21.5227 28.3637L20.0003 30Z" fill="black"/>
</svg>
