<svg width="30" height="30" viewBox="0 0 30 30" fill="none" xmlns="http://www.w3.org/2000/svg">
<path fill-rule="evenodd" clip-rule="evenodd" d="M21.3528 6.44278C19.88 6.11413 17.4917 5.45682 14.2674 5.70814C11.5885 5.91307 9.21209 6.74823 7.04667 7.5834C6.979 7.6298 6.91531 7.67619 6.84764 7.72259C6.8357 7.73806 6.82375 7.74966 6.80783 7.75739C6.63667 7.84632 6.46152 7.96232 6.3222 8.07058C6.26648 8.10924 6.22667 8.19817 6.21871 8.2639C6.20677 8.3683 6.02764 8.56162 6.00376 8.65829C5.99978 8.68148 6.01172 8.70855 6.01172 8.73175C6.0157 8.74335 6.02366 8.75881 6.02764 8.77041C6.04755 8.80908 6.05153 8.85548 6.0356 8.89414C6.02764 8.91734 6.01968 8.94441 6.00774 8.96761C5.9759 9.24986 6.04755 9.47798 6.12716 9.72544C6.13512 9.75251 6.13512 9.77957 6.13114 9.80664C6.12716 9.82984 6.12318 9.8569 6.1192 9.8801C6.13512 9.92263 6.1391 9.97676 6.12318 10.0348C6.07143 10.2088 6.22667 10.3789 6.37395 10.5142C6.42172 10.5529 6.48143 10.5683 6.54113 10.5529C6.65259 10.5258 6.77599 10.5103 6.89142 10.5683C7.22579 10.7423 7.60792 10.9937 7.99802 10.9318C8.75831 10.8158 10.0162 10.4407 11.2302 10.058C11.3656 10.0154 11.5009 10.1392 11.4611 10.2745C11.1307 11.388 10.7008 13.4875 10.6172 13.8858C10.5098 14.4155 9.51063 17.559 9.36335 18.2781C9.22005 19.0012 8.29656 22.1021 8.06967 23.0649C8.02986 23.2234 7.99404 23.3935 7.95423 23.5598C7.94627 23.6062 7.95423 23.6526 7.97812 23.6951C8.07763 23.8691 8.13734 24.4182 8.26074 24.4684C8.31248 24.4916 8.34433 24.5225 8.36025 24.5573C8.42394 24.6888 8.62297 24.6811 8.69064 24.5496C9.02898 23.8691 9.50267 22.7092 9.67781 22.2258C10.0878 21.1084 11.1546 19.643 11.5407 19.2138C11.9268 18.7847 11.7119 17.8296 12.0661 17.2845C12.4164 16.7393 12.91 15.8229 13.1528 15.4131C13.5031 14.8215 14.5142 13.7118 15.167 12.8612C15.6725 12.2116 15.4815 11.6858 16.5244 10.7965C16.7035 10.6418 16.7393 10.4717 16.7154 10.2822C16.7115 10.2436 16.7194 10.2049 16.7353 10.174C16.7513 10.143 16.7672 10.116 16.7831 10.085C16.811 10.0386 16.811 9.9845 16.7911 9.93423C16.7353 9.80664 16.6995 9.67131 16.6358 9.54372C16.5642 9.39679 16.8508 9.14547 17.0578 9.17253C17.0697 9.17253 17.0817 9.17253 17.0976 9.1764C17.1135 9.16866 17.1294 9.16093 17.1533 9.1532C17.3484 9.10293 17.5553 9.1068 17.7583 9.13773C18.9047 9.22666 20.0511 9.54372 20.5766 9.39292C21.1697 9.21893 21.7986 9.04107 22.1131 8.96761C22.3201 8.91734 22.0852 10.201 21.7668 11.2218C21.7628 11.2295 21.7628 11.2411 21.7628 11.2527C21.7389 11.4886 21.6752 11.7244 21.5717 11.9603C21.5638 11.9835 21.5478 12.0067 21.5279 12.0221C21.3528 12.1884 21.1577 12.3431 20.9985 12.5093C20.4452 13.0893 20.1626 13.9979 19.4779 14.4387C18.9087 14.806 18.2161 15.0419 17.7623 15.5561C17.619 15.7147 17.5394 15.9196 17.3842 16.0742C17.1692 16.2908 16.8866 16.3372 16.6279 16.4802C16.5363 16.5305 16.4726 16.5692 16.4328 16.6194C16.4089 16.6503 16.3731 16.6735 16.3333 16.6851C16.0825 16.7586 15.8915 16.8321 15.9353 17.0061C16.0706 17.5435 17.9773 17.3347 19.7327 16.7586C21.4881 16.1825 21.6712 15.2739 22.3639 14.6127C23.2993 13.7234 23.554 13.36 23.9282 11.5195C24.3024 9.67904 23.1799 6.84876 21.3528 6.44278Z" fill="black"/>
</svg>
