<svg width="30" height="30" viewBox="0 0 30 30" fill="none" xmlns="http://www.w3.org/2000/svg">
<mask id="mask0_36_251" style="mask-type:alpha" maskUnits="userSpaceOnUse" x="5" y="5" width="20" height="20">
<path d="M5 5H25V24.999H5V5Z" fill="white"/>
</mask>
<g mask="url(#mask0_36_251)">
<path fill-rule="evenodd" clip-rule="evenodd" d="M20.338 8.462C20.0196 8.462 19.7143 8.58848 19.4891 8.81362C19.264 9.03876 19.1375 9.34411 19.1375 9.6625C19.1375 9.98089 19.264 10.2862 19.4891 10.5114C19.7143 10.7365 20.0196 10.863 20.338 10.863C20.6563 10.863 20.9615 10.7366 21.1865 10.5115C21.4116 10.2865 21.538 9.98126 21.538 9.663C21.538 9.34474 21.4116 9.03952 21.1865 8.81447C20.9615 8.58943 20.6563 8.463 20.338 8.463V8.462ZM15 18.332C14.5575 18.3397 14.1179 18.2591 13.7069 18.0951C13.2959 17.9311 12.9216 17.6868 12.606 17.3766C12.2904 17.0664 12.0397 16.6964 11.8685 16.2883C11.6974 15.8802 11.6093 15.4421 11.6093 14.9995C11.6093 14.5569 11.6974 14.1188 11.8685 13.7107C12.0397 13.3026 12.2904 12.9326 12.606 12.6224C12.9216 12.3122 13.2959 12.0679 13.7069 11.9039C14.1179 11.7399 14.5575 11.6593 15 11.667C15.8738 11.6821 16.7068 12.0399 17.3194 12.6632C17.932 13.2865 18.2753 14.1255 18.2753 14.9995C18.2753 15.8735 17.932 16.7125 17.3194 17.3358C16.7068 17.9591 15.8738 18.3169 15 18.332V18.332ZM15 9.864C13.6381 9.864 12.332 10.405 11.369 11.368C10.406 12.331 9.865 13.6371 9.865 14.999C9.865 16.3609 10.406 17.667 11.369 18.63C12.332 19.593 13.6381 20.134 15 20.134C16.3619 20.134 17.668 19.593 18.631 18.63C19.594 17.667 20.135 16.3609 20.135 14.999C20.135 13.6371 19.594 12.331 18.631 11.368C17.668 10.405 16.3619 9.864 15 9.864V9.864ZM15 5C12.284 5 11.944 5.011 10.878 5.06C7.246 5.226 5.228 7.241 5.06 10.876C5.01 11.944 5 12.284 5 15C5 17.715 5.012 18.056 5.06 19.123C5.227 22.754 7.242 24.773 10.877 24.94C11.944 24.988 12.284 25 15 25C17.716 25 18.057 24.988 19.123 24.94C22.752 24.773 24.775 22.758 24.94 19.123C24.988 18.056 25 17.715 25 15C25 12.284 24.988 11.944 24.94 10.877C24.777 7.25 22.76 5.227 19.125 5.061C18.057 5.011 17.716 5.001 15 5.001V5ZM15 6.802C17.67 6.802 17.986 6.812 19.042 6.86C21.752 6.984 23.018 8.27 23.141 10.96C23.19 12.014 23.198 12.331 23.198 15.001C23.198 17.671 23.188 17.987 23.141 19.042C23.017 21.729 21.754 23.017 19.041 23.14C17.986 23.19 17.671 23.2 15 23.2C12.33 23.2 12.013 23.19 10.959 23.14C8.243 23.016 6.984 21.724 6.859 19.041C6.812 17.986 6.802 17.671 6.802 15.001C6.802 12.331 6.812 12.014 6.86 10.959C6.984 8.27 8.247 6.983 10.959 6.859C12.014 6.812 12.329 6.802 14.999 6.802" fill="black"/>
</g>
</svg>
