<svg xmlns="http://www.w3.org/2000/svg" xmlns:xlink="http://www.w3.org/1999/xlink" width="20" height="20"><defs><path id="a" d="M0 0h20v16.253H0z"/></defs><g fill="none" fill-rule="evenodd" transform="translate(0 2)"><mask id="b" fill="#fff"><use xlink:href="#a"/></mask><path fill="#000" d="M20 1.924a8.165 8.165 0 01-2.356.646A4.106 4.106 0 0019.447.3a8.216 8.216 0 01-2.605.996A4.097 4.097 0 0013.847 0c-2.65 0-4.596 2.472-3.998 5.037A11.645 11.645 0 011.393.751a4.107 4.107 0 001.269 5.478 4.083 4.083 0 01-1.858-.513C.759 7.617 2.122 9.395 4.095 9.791a4.111 4.111 0 01-1.853.07 4.106 4.106 0 003.833 2.849A8.25 8.25 0 010 14.41a11.617 11.617 0 006.29 1.844c7.618 0 11.923-6.435 11.662-12.205A8.359 8.359 0 0020 1.924" mask="url(#b)"/></g></svg>