<?xml version="1.0" standalone="no"?>
<!DOCTYPE svg PUBLIC "-//W3C//DTD SVG 20010904//EN"
 "http://www.w3.org/TR/2001/REC-SVG-20010904/DTD/svg10.dtd">
<svg version="1.0" xmlns="http://www.w3.org/2000/svg"
 width="700.000000pt" height="700.000000pt" viewBox="0 0 700.000000 700.000000"
 preserveAspectRatio="xMidYMid meet">
<metadata>
Created by potrace 1.14, written by Peter Selinger 2001-2017
</metadata>
<g transform="translate(0.000000,700.000000) scale(0.100000,-0.100000)"
fill="#000000" stroke="none">
<path d="M285 4594 c-6 -1 -27 -5 -48 -9 -52 -8 -94 -54 -103 -111 -11 -76 14
-287 47 -390 5 -17 11 -40 13 -50 10 -51 67 -248 133 -464 19 -63 48 -159 63
-212 16 -54 31 -101 34 -106 3 -5 7 -19 10 -33 3 -13 39 -136 81 -274 42 -137
78 -257 80 -265 2 -8 19 -64 37 -124 28 -92 38 -110 58 -118 48 -18 126 -29
217 -30 82 0 97 2 136 25 115 68 246 275 327 515 25 74 109 424 134 552 2 14
9 45 15 70 5 25 13 59 16 75 3 17 7 35 9 40 1 6 9 38 16 73 7 35 16 60 20 55
4 -4 24 -48 45 -98 21 -49 48 -112 60 -140 43 -96 63 -140 89 -203 59 -141
157 -353 200 -434 125 -238 269 -436 365 -502 36 -25 49 -28 107 -27 77 2 149
18 165 37 6 7 21 50 34 96 13 46 46 160 75 253 112 364 201 661 205 679 3 11
13 47 24 80 44 139 82 269 116 396 50 188 44 160 70 303 36 190 12 300 -68
326 -160 53 -324 -63 -456 -324 -52 -103 -88 -216 -147 -456 -83 -343 -101
-406 -109 -384 -4 11 -14 38 -22 60 -19 50 -102 282 -113 315 -36 109 -105
292 -133 354 -97 210 -257 389 -387 435 -46 16 -58 17 -100 6 -131 -35 -293
-209 -399 -430 -32 -66 -88 -213 -159 -420 -47 -135 -113 -319 -119 -328 -5
-8 -22 51 -58 203 -2 8 -20 80 -40 160 -41 159 -40 156 -55 220 -54 229 -212
488 -346 566 -38 22 -116 44 -139 38z"/>
<path d="M3757 4594 c-1 -1 -40 -4 -87 -7 -82 -5 -111 -10 -151 -22 -17 -6
-19 -13 -14 -68 3 -34 10 -78 15 -97 5 -19 11 -48 13 -65 21 -131 156 -554
275 -860 191 -495 399 -915 496 -1005 115 -105 380 181 561 605 24 55 73 172
110 260 37 88 78 184 91 213 13 29 24 55 24 57 0 2 11 29 25 59 14 30 25 57
25 59 0 2 10 26 22 53 l21 49 9 -30 c6 -25 37 -164 54 -250 21 -105 109 -491
121 -530 56 -185 117 -329 173 -411 102 -148 222 -199 337 -143 187 90 354
399 498 924 133 484 251 858 319 1012 20 45 36 86 36 91 0 6 -11 24 -25 41
-37 43 -99 62 -209 62 -56 1 -79 -5 -130 -30 -160 -79 -323 -295 -414 -551
-177 -496 -221 -616 -222 -610 -1 3 -3 12 -5 20 -2 8 -11 40 -19 72 -8 31 -17
67 -20 80 -25 123 -134 519 -161 589 -34 84 -102 211 -135 253 -76 97 -149
157 -210 173 -104 29 -263 -85 -393 -280 -72 -108 -103 -177 -182 -398 -37
-101 -85 -233 -107 -294 -22 -60 -41 -114 -43 -120 -2 -12 -13 -41 -27 -75 -8
-21 -23 27 -93 308 -46 183 -96 365 -111 405 -106 274 -268 453 -418 461 -26
1 -47 1 -49 0z"/>
<path d="M3135 2984 c-5 -1 -26 -5 -46 -8 -48 -8 -115 -76 -131 -131 -29 -106
1 -224 73 -290 21 -19 71 -51 111 -72 66 -33 81 -37 153 -37 69 -1 85 2 114
23 47 34 74 98 67 161 -14 127 -150 290 -284 340 -26 9 -51 16 -57 14z"/>
<path d="M6578 2966 c-83 -22 -153 -92 -206 -205 -67 -145 3 -289 163 -336 65
-19 195 -21 257 -5 113 30 198 100 206 171 8 71 -34 187 -90 250 -92 103 -225
153 -330 125z"/>
</g>
</svg>
